<?xml version="1.0" encoding="UTF-8"?>
<svg id="Capa_1" data-name="Capa 1" xmlns="http://www.w3.org/2000/svg" viewBox="0 0 659.76 152.49">
  <defs>
    <style>
      .cls-1 {
        fill: #010101;
      }

      .cls-1, .cls-2 {
        stroke-width: 0px;
      }

      .cls-2 {
        fill: #fff;
      }
    </style>
  </defs>
  <g>
    <path class="cls-2" d="M130.4,152.49c-2.17,0-8.05,0-15.72-3.13-1.39-.57-3.87,1.99-3.87,1.99l-1.22-15.77s11.71,15.93,20.73,15.93c9.84,0,13.49-5.53,13.49-11.3,0-7.23-7.24-12.6-15.36-16.75-8.78-4.72-16.75-9.43-16.75-18.29,0-7.24,4.23-13.9,17.8-13.9,5.19,0,9.61,1.19,13.24,2.83,1.42.64,3.08-.06,3.58-1.53l.81,14.23s-6.83-14.55-17.4-14.55-12.19,4.47-12.19,9.02c0,7.89,6.99,12.03,14.96,16.1,8.37,4.47,17.23,9.67,17.23,19.27,0,8.37-6.83,15.85-19.35,15.85Z"/>
    <path class="cls-2" d="M206.49,92.58l.89,13.09h0c-1.83-6.71-7.7-11.59-14.64-12.01-1.14-.07-2.33-.1-3.57-.1-4.06,0-4.72,1.3-4.72,2.68v49.75c0,3.09,8.13,5.37,8.13,5.37h-23.17s8.13-2.03,8.13-5.37v-49.67c0-1.38-.49-2.76-4.63-2.76-.94,0-1.86.01-2.74.04-7.2.25-13.41,5.14-15.39,12.07h0s.73-13.09.73-13.09h50.97Z"/>
    <path class="cls-2" d="M257.13,92.58l2.02,11.67s-3.25-7.81-12.44-9.82c-3.24-.71-7.02-.87-10.72-.87-7.48,0-9.02.73-9.02,4.47v17.4c0,2.56,2.07,4.63,4.63,4.63h0c15.77,0,16.83-7.07,16.83-7.07v15.12s-1.06-7.07-16.83-7.07h0c-2.56,0-4.63,2.07-4.63,4.63v20.32c0,3.82,2.36,4.39,5.2,4.39,6.75,0,15.09.3,18.62-1.63,5.21-2.85,8.36-8.62,8.36-8.62l-1.99,11.22h-45.23s8.1-.18,8.13-5.37v-48.05c0-3.9-8.13-5.36-8.13-5.36h45.2Z"/>
    <path class="cls-2" d="M304.52,148.76c7.7-2.72,10.16-11.3,10.16-11.3l-2.6,13.9h-46.26s.04,0,.11-.02c4.66-.87,8.02-2.15,8.02-6.89v-46.5c-1.34-4.83-8.05-5.36-8.05-5.36h23.17s-8.1.79-8.21,5.36v48.05c0,3.09,1.06,4.39,9.02,4.39,4.96,0,10.8-.27,14.63-1.63Z"/>
    <path class="cls-2" d="M357.12,148.76c8.23-4.04,10.16-11.3,10.16-11.3l-2.6,13.9h-46.26s8.13,0,8.13-6.91v-46.5c-.08-4.55-8.05-5.36-8.05-5.36h23.17s-8.41.94-8.21,5.36v48.05c0,3.09,1.06,4.39,9.02,4.39,4.96,0,10.98.17,14.63-1.63Z"/>
    <path class="cls-2" d="M372.59,151.36l22.89-58.78h1.95c1.71,4.31,3.33,8.62,4.8,12.52l7.07,19.1c6.91,18.05,10.4,27.15,10.4,27.15h-10.4s4.41-1.15,5.05-1.59c.84-.58,1.46-1.55,1.46-3.29,0-2.6-2.28-8.21-3.58-11.62l-2.84-7.32h-20.81c-5.93,17.15-6.67,19.35-6.67,20.32,0,2.52,6.83,3.5,6.83,3.5h-16.15ZM388.98,126.56h20.08c-3.41-9.27-6.59-17.72-10-26.83l-10.08,26.83Z"/>
    <path class="cls-2" d="M485.55,145.59c-.08,2.44-.65,6.91-6.99,6.91-6.91,0-10.81-6.83-15.2-17.07-3.66-8.54-10.49-14.8-19.51-14.31v24.88c0,3.01,8.13,5.37,8.13,5.37h-23.09s8.05-2.36,8.05-5.37v-48.05c0-3.9-8.05-5.36-8.05-5.36h9.19c5.45.08,12.11-.89,17.48-.89,18.86,0,22.27,8.21,22.27,14.8,0,10.16-10.16,15.69-22.52,15.77,8.86,2.76,13.98,8.37,17.15,14.06,1.63,2.85,3.25,6.59,4.47,9.27.89,1.95,2.2,4.96,4.47,4.96s4.15-4.96,4.15-4.96ZM454.66,92.66c-3.33,0-7.48.65-10.81,2.2v25.28l4.31.41c2.19.24,4.47.49,6.67.49,9.35,0,15.45-5.93,15.45-14.14,0-9.51-6.1-14.23-15.61-14.23Z"/>
    <path class="cls-2" d="M489.7,151.36s8.13-2.19,8.13-5.37v-48.05c0-3.5-8.13-5.36-8.13-5.36h23.17s-8.13,2.03-8.13,5.36v48.05c0,3.01,8.13,5.37,8.13,5.37h-23.17Z"/>
    <path class="cls-2" d="M572.37,111.6v14.06c0,15.12-4.88,26.5-21.62,26.5-23.82,0-23.58-16.01-23.58-21.3v-32.92c0-3.09-8.13-5.36-8.13-5.36h23.17s-8.13,2.19-8.13,5.36v34.31c0,15.53,11.3,18.62,16.75,18.62,16.42,0,20.4-11.38,20.4-25.2v-14.8c0-10.08-7.64-18.29-7.64-18.29h16.34s-7.23,8.86-7.56,19.02Z"/>
    <path class="cls-2" d="M636.59,151.36s8.13-1.87,8.13-5.37v-48.7l-23.9,44.47h-1.71l-24.14-44.79v33.9c0,12.19,7.72,20.49,7.72,20.49h-16.58s7.72-7.15,7.72-23.01v-30.81c0-3.09-7.72-4.96-7.72-4.96h14.15l22.84,42.27c7.48-14.06,15.2-28.21,22.68-42.27h13.98s-8.13.98-8.13,5.2v48.21c0,3.17,8.13,5.37,8.13,5.37h-23.17Z"/>
  </g>
  <g>
    <circle class="cls-2" cx="55.33" cy="51.22" r="51.22"/>
    <circle class="cls-1" cx="46.83" cy="53.56" r="46.82"/>
    <circle class="cls-2" cx="43.43" cy="56.59" r="42.76"/>
    <circle class="cls-1" cx="55.96" cy="50.15" r="29.1"/>
  </g>
</svg>