<?xml version="1.0" encoding="UTF-8"?>
<svg id="Capa_1" data-name="Capa 1" xmlns="http://www.w3.org/2000/svg" viewBox="0 0 751.08 199.82">
  <defs>
    <style>
      .cls-1 {
        fill: #010101;
      }

      .cls-1, .cls-2 {
        stroke-width: 0px;
      }

      .cls-2 {
        fill: #fff;
      }
    </style>
  </defs>
  <g>
    <path class="cls-2" d="M150.71,174.84c.23,4.03,1.18,7.3,2.85,9.81,3.19,4.7,8.81,7.05,16.86,7.05,3.61,0,6.89-.52,9.86-1.55,5.73-2,8.6-5.57,8.6-10.73,0-3.86-1.21-6.62-3.62-8.26-2.45-1.61-6.28-3.01-11.5-4.2l-9.61-2.17c-6.28-1.42-10.73-2.98-13.33-4.69-4.51-2.96-6.76-7.39-6.76-13.29,0-6.38,2.21-11.61,6.62-15.7,4.41-4.09,10.66-6.14,18.74-6.14,7.44,0,13.76,1.8,18.96,5.39,5.2,3.59,7.8,9.33,7.8,17.22h-9.03c-.48-3.8-1.51-6.72-3.09-8.74-2.93-3.7-7.91-5.56-14.93-5.56-5.67,0-9.74,1.19-12.22,3.58-2.48,2.38-3.72,5.15-3.72,8.31,0,3.48,1.45,6.02,4.35,7.63,1.9,1.03,6.2,2.32,12.9,3.86l9.95,2.27c4.8,1.1,8.5,2.59,11.11,4.49,4.51,3.32,6.76,8.13,6.76,14.45,0,7.86-2.86,13.48-8.58,16.86-5.72,3.38-12.36,5.07-19.93,5.07-8.82,0-15.73-2.25-20.73-6.76-4.99-4.48-7.44-10.55-7.34-18.21h9.03Z"/>
    <path class="cls-2" d="M262.07,126.77v8.45h-23.91v62.52h-9.76v-62.52h-23.91v-8.45h57.59Z"/>
    <path class="cls-2" d="M271.78,126.77h51.74v8.7h-42.37v21.55h39.18v8.21h-39.18v24.06h43.09v8.45h-52.47v-70.97Z"/>
    <path class="cls-2" d="M336.86,126.77h9.61v62.52h35.94v8.45h-45.56v-70.97Z"/>
    <path class="cls-2" d="M391.88,126.77h9.61v62.52h35.94v8.45h-45.56v-70.97Z"/>
    <path class="cls-2" d="M467.54,126.77h10.87l25.75,70.97h-10.53l-7.2-21.26h-28.07l-7.68,21.26h-9.86l26.72-70.97ZM483.34,168.66l-10.77-31.35-11.45,31.35h22.22Z"/>
    <path class="cls-2" d="M514.06,126.77h32.85c5.41,0,9.87.79,13.38,2.37,6.67,3.03,10,8.62,10,16.76,0,4.25-.88,7.73-2.63,10.44-1.76,2.71-4.21,4.88-7.37,6.52,2.77,1.13,4.86,2.61,6.26,4.44,1.4,1.84,2.18,4.82,2.34,8.94l.34,9.52c.1,2.71.32,4.72.68,6.04.58,2.25,1.61,3.7,3.09,4.35v1.59h-11.79c-.32-.61-.58-1.4-.77-2.37-.19-.97-.35-2.83-.48-5.6l-.58-11.84c-.23-4.64-1.95-7.75-5.17-9.32-1.84-.87-4.72-1.3-8.65-1.3h-21.89v30.44h-9.61v-70.97ZM545.9,159.29c4.51,0,8.08-.9,10.7-2.71,2.62-1.8,3.94-5.06,3.94-9.76,0-5.06-1.84-8.5-5.51-10.34-1.96-.97-4.59-1.45-7.87-1.45h-23.48v24.25h22.22Z"/>
    <path class="cls-2" d="M586.53,126.77h9.71v70.97h-9.71v-70.97Z"/>
    <path class="cls-2" d="M622.28,126.77v43.87c0,5.15.97,9.44,2.9,12.85,2.87,5.15,7.7,7.73,14.49,7.73,8.15,0,13.69-2.79,16.62-8.36,1.58-3.03,2.37-7.1,2.37-12.22v-43.87h9.76v39.86c0,8.73-1.18,15.44-3.53,20.15-4.32,8.57-12.46,12.85-24.45,12.85s-20.11-4.28-24.4-12.85c-2.35-4.7-3.53-11.42-3.53-20.15v-39.86h9.76Z"/>
    <path class="cls-2" d="M683.06,126.77h13.77l20.39,60,20.24-60h13.62v70.97h-9.13v-41.89c0-1.45.03-3.85.1-7.2.06-3.35.1-6.94.1-10.77l-20.24,59.86h-9.52l-20.39-59.86v2.17c0,1.74.04,4.39.12,7.95.08,3.56.12,6.18.12,7.85v41.89h-9.18v-70.97Z"/>
  </g>
  <g>
    <circle class="cls-2" cx="67.51" cy="62.49" r="62.49"/>
    <circle class="cls-1" cx="57.13" cy="65.35" r="57.13"/>
    <circle class="cls-2" cx="52.99" cy="69.04" r="52.17"/>
    <circle class="cls-1" cx="68.27" cy="61.18" r="35.5"/>
  </g>
</svg>