<?xml version="1.0" encoding="UTF-8"?>
<svg id="ABOUT" xmlns="http://www.w3.org/2000/svg" viewBox="0 0 492.32 293.21">
  <defs>
    <style>
      .cls-1 {
        fill: #000;
      }

      .cls-1, .cls-2 {
        stroke-width: 0px;
      }

      .cls-3 {
        fill: none;
        stroke: #fff;
        stroke-miterlimit: 10;
        stroke-width: 4px;
      }

      .cls-2 {
        fill: #fff;
      }
    </style>
  </defs>
  <path class="cls-3" d="M0,30.99h72.13c3.99,0,7.23,3.24,7.23,7.23v101.62c0,3.99,3.24,7.23,7.23,7.23h151.34c3.99,0,7.23-3.24,7.23-7.23V9.23c0-3.99,3.24-7.23,7.23-7.23h161.6c3.99,0,7.23,3.24,7.23,7.23v274.75c0,3.99,3.24,7.23,7.23,7.23h63.88"/>
  <g>
    <circle class="cls-2" cx="341.53" cy="46.68" r="18.38"/>
    <circle class="cls-1" cx="341.53" cy="43.91" r="12.51"/>
  </g>
  <g>
    <path class="cls-2" d="M117.76,28.15h16.68c3.3,0,5.96.93,7.97,2.79,2.02,1.86,3.03,4.47,3.03,7.84,0,2.89-.9,5.41-2.7,7.56-1.8,2.14-4.57,3.22-8.3,3.22h-11.66v15.67h-5.02V28.15ZM137.34,33.25c-1.11-.52-2.63-.78-4.57-.78h-9.99v12.84h9.99c2.25,0,4.08-.48,5.49-1.44s2.11-2.65,2.11-5.07c0-2.73-1.01-4.58-3.03-5.55Z"/>
    <path class="cls-2" d="M152.23,28.15h27.03v4.54h-22.13v11.25h20.47v4.29h-20.47v12.57h22.51v4.42h-27.4V28.15Z"/>
    <path class="cls-2" d="M186.82,28.15h17.16c2.83,0,5.16.41,6.99,1.24,3.48,1.58,5.22,4.5,5.22,8.76,0,2.22-.46,4.04-1.38,5.45-.92,1.41-2.2,2.55-3.85,3.41,1.45.59,2.54,1.36,3.27,2.32.73.96,1.14,2.52,1.22,4.67l.18,4.97c.05,1.41.17,2.46.35,3.15.3,1.18.84,1.93,1.62,2.27v.83h-6.16c-.17-.32-.3-.73-.4-1.24s-.19-1.48-.25-2.93l-.3-6.18c-.12-2.42-1.02-4.05-2.7-4.87-.96-.45-2.46-.68-4.52-.68h-11.43v15.9h-5.02V28.15ZM203.45,45.13c2.36,0,4.22-.47,5.59-1.41,1.37-.94,2.06-2.64,2.06-5.1,0-2.64-.96-4.44-2.88-5.4-1.03-.5-2.4-.76-4.11-.76h-12.26v12.67h11.61Z"/>
  </g>
  <g>
    <path class="cls-2" d="M293.87,28.61h25.03v4.42h-20.14v10.95h17.71v4.3h-17.71v16.41h-4.89V28.61Z"/>
    <path class="cls-2" d="M363.85,28.61h16.7c2.75,0,5.02.4,6.8,1.2,3.39,1.54,5.08,4.38,5.08,8.52,0,2.16-.45,3.93-1.34,5.31s-2.14,2.48-3.75,3.32c1.41.57,2.47,1.33,3.18,2.26s1.11,2.45,1.19,4.54l.17,4.84c.05,1.38.16,2.4.34,3.07.29,1.15.82,1.88,1.57,2.21v.81h-5.99c-.16-.31-.29-.71-.39-1.2s-.18-1.44-.25-2.85l-.29-6.02c-.11-2.36-.99-3.94-2.63-4.74-.93-.44-2.4-.66-4.4-.66h-11.13v15.47h-4.89V28.61ZM380.03,45.14c2.29,0,4.11-.46,5.44-1.38,1.33-.92,2-2.57,2-4.96,0-2.57-.93-4.32-2.8-5.26-1-.49-2.33-.74-4-.74h-11.94v12.33h11.3Z"/>
  </g>
  <g>
    <path class="cls-2" d="M116.66,101.83h6.62l9.8,28.84,9.73-28.84h6.55v34.11h-4.39v-20.13c0-.7.02-1.85.05-3.46s.05-3.34.05-5.18l-9.73,28.77h-4.57l-9.8-28.77v1.05c0,.84.02,2.11.06,3.82s.06,2.97.06,3.77v20.13h-4.41v-34.11Z"/>
    <path class="cls-2" d="M166.31,101.83h5.23l12.38,34.11h-5.06l-3.46-10.22h-13.49l-3.69,10.22h-4.74l12.84-34.11ZM173.91,121.96l-5.18-15.07-5.5,15.07h10.68Z"/>
    <path class="cls-2" d="M188.12,101.83h5.46l17.23,27.64v-27.64h4.39v34.11h-5.18l-17.49-27.61v27.61h-4.41v-34.11Z"/>
  </g>
  <g>
    <path class="cls-2" d="M319.94,104.62c2.34,2.23,3.64,4.77,3.89,7.6h-4.42c-.5-2.16-1.5-3.86-2.99-5.12s-3.59-1.89-6.29-1.89c-3.29,0-5.95,1.16-7.98,3.47s-3.04,5.86-3.04,10.64c0,3.92.91,7.09,2.74,9.53,1.83,2.44,4.56,3.65,8.18,3.65,3.34,0,5.88-1.28,7.63-3.85.93-1.35,1.62-3.13,2.07-5.33h4.42c-.39,3.52-1.7,6.47-3.92,8.86-2.66,2.87-6.24,4.3-10.75,4.3-3.89,0-7.15-1.18-9.79-3.53-3.48-3.11-5.21-7.92-5.21-14.41,0-4.93,1.31-8.98,3.92-12.13,2.82-3.43,6.72-5.15,11.68-5.15,4.23,0,7.52,1.12,9.86,3.35Z"/>
    <path class="cls-2" d="M330.09,102.19h24.38v4.1h-19.97v10.15h18.46v3.87h-18.46v11.34h20.31v3.98h-24.72v-33.44Z"/>
  </g>
</svg>